<?xml version="1.0" encoding="iso-8859-1"?>
<svg version="1.1" id="Capa_1" xmlns="http://www.w3.org/2000/svg" xmlns:xlink="http://www.w3.org/1999/xlink" x="0px" y="0px"
	 viewBox="0 0 299.5 299.5" style="enable-background:new 0 0 299.5 299.5;" xml:space="preserve">
<path d="M237.416,130.509c-2.048,0-4.071,0.106-6.069,0.301l-17.801-80.043c-0.764-3.43-3.807-5.943-7.321-5.943h-19.933
	c-9.264,0-17.973,3.681-24.522,10.229l-7.635,7.671c-2.929,2.93-2.929,7.696,0,10.626c2.93,2.928,7.678,2.937,10.607,0.009
	l7.635-7.703c3.716-3.717,8.658-5.832,13.915-5.832h13.919l7.094,31.945c-0.023-0.003-0.046,0.03-0.069,0.027
	c-0.092-0.012-0.183-0.012-0.276-0.021c-0.197-0.019-0.393,0.017-0.59,0.013c-0.049-0.001-0.097,0.035-0.146,0.035H206.2
	c-0.003,0-0.007,0-0.01,0H97.056c-0.142,0-0.278-0.115-0.418-0.107l-8.716-15.893h8.662c3.666,0,6.794-2.542,7.397-6.158
	c0.604-3.616-1.494-7.084-4.961-8.276L64.45,49.544c-1.766-0.606-3.598-0.9-5.444-0.9c-9.213,0-16.709,7.404-16.709,16.628
	c0,5.873,4.778,10.55,10.651,10.55h17.831l16.295,29.556l-9.038,27.166c-4.468-1.189-9.127-1.877-13.926-2.031
	c-17.726-0.556-34.354,6.207-46.624,18.876c-11.797,12.18-17.995,28.244-17.453,45.222c1.041,32.619,27.407,58.989,60.025,60.03
	c0.679,0.021,1.352,0.034,2.026,0.034c16.958,0,32.796-6.709,44.598-18.893c9.59-9.901,15.48-22.366,17.058-35.804l6.69-0.04
	c2.603,4.735,7.638,7.953,13.413,7.953c8.436,0,15.298-6.862,15.298-15.298c0-2.485-0.608-4.825-1.664-6.902l53.05-79.375
	l6.179,27.758c-24.079,8.547-41.374,31.546-41.374,58.519c0,34.233,27.851,62.084,62.084,62.084s62.084-27.851,62.084-62.084
	S271.649,130.509,237.416,130.509z M192.19,106.823l-47.184,70.564c-0.349-0.026-0.699-0.034-1.054-0.037l-39.033-70.528H192.19z
	 M96.94,123.318l33.896,61.26c-0.073,0.119-0.147,0.237-0.218,0.358l-6.922,0.042c-2.474-20.159-14.656-37.365-31.715-46.78
	L96.94,123.318z M87.133,152.74c11.209,7.071,19.237,18.738,21.425,32.33l-32.267,0.196L87.133,152.74z M95.908,225.346
	c-9.31,9.61-21.91,14.73-35.371,14.306c-24.731-0.789-44.723-20.781-45.512-45.513c-0.411-12.883,4.289-25.064,13.235-34.301
	c8.95-9.241,20.963-14.33,33.823-14.33c0.515,0,1.029,0.008,1.548,0.024c3.315,0.106,6.541,0.567,9.65,1.328L58.75,190.457
	c-0.765,2.295-0.376,5.064,1.044,7.022c1.411,1.946,3.669,3.344,6.071,3.344c0.015,0,0.03,0,0.046,0l42.664-0.506
	C107.075,209.791,102.73,218.303,95.908,225.346z M237.416,239.677c-25.962,0-47.084-21.122-47.084-47.084
	c0-19.81,12.304-36.789,29.666-43.73l10.097,45.36c0.778,3.494,3.877,5.872,7.314,5.872c0.539,0,1.088-0.059,1.637-0.181
	c4.043-0.9,6.591-4.908,5.691-8.951l-10.098-45.365c0.92-0.054,1.844-0.089,2.777-0.089c25.962,0,47.084,21.122,47.084,47.084
	S263.378,239.677,237.416,239.677z"/>
</svg>
